PathFileType	4	(X/Y/Z)	C:/Users/opensim2020/Desktop/walking_exp_matlab/subject02_walking17_run.trc																																																																																																																																																							
DataRate	CameraRate	NumFrames	NumMarkers	Units	OrigDataRate	OrigDataStartFrame	OrigNumFrames																																																																																																																																																			
100	100	4	51	mm	100	329	112																																																																																																																																																			
Frame#	Time	LSHO			RELB			LANK			LTOE			LUPA			RUPA			RWRB			LKNE			RSHO			RFIN			RFRM			RASI			LTHI			LWRB			RTHI			LASI			LFHD			RKNE			LELB			LTIB			RWRA			STRN			RTIB			RFHD			RANK			RBHD			RTOE			RHEE			C7			LHEE			LFRM			CLAV			LWRA			LBHD			RBAK			LFIN			T10			LPSI			RPSI			*39			*40			*41			*42			*43			*44			*45			*46			*47			*48			*49			*50		
		X1	Y1	Z1	X2	Y2	Z2	X3	Y3	Z3	X4	Y4	Z4	X5	Y5	Z5	X6	Y6	Z6	X7	Y7	Z7	X8	Y8	Z8	X9	Y9	Z9	X10	Y10	Z10	X11	Y11	Z11	X12	Y12	Z12	X13	Y13	Z13	X14	Y14	Z14	X15	Y15	Z15	X16	Y16	Z16	X17	Y17	Z17	X18	Y18	Z18	X19	Y19	Z19	X20	Y20	Z20	X21	Y21	Z21	X22	Y22	Z22	X23	Y23	Z23	X24	Y24	Z24	X25	Y25	Z25	X26	Y26	Z26	X27	Y27	Z27	X28	Y28	Z28	X29	Y29	Z29	X30	Y30	Z30	X31	Y31	Z31	X32	Y32	Z32	X33	Y33	Z33	X34	Y34	Z34	X35	Y35	Z35	X36	Y36	Z36	X37	Y37	Z37	X38	Y38	Z38	X39	Y39	Z39	X40	Y40	Z40	X41	Y41	Z41	X42	Y42	Z42	X43	Y43	Z43	X44	Y44	Z44	X45	Y45	Z45	X46	Y46	Z46	X47	Y47	Z47	X48	Y48	Z48	X49	Y49	Z49	X50	Y50	Z50	X51	Y51	Z51
																																																																																																																																																										
99	0.98	1804.82642	1502.04285	-152.50508	1550.42737	1301.23743	328.99878	1444.18311	208.73091	-64.90285	1519.62195	71.20039	-79.19256	1845.32166	1352.31458	-278.76779	1618.20593	1417.85596	264.5314	1695.25073	1088.8916	342.94894	1745.37671	486.12067	-118.24778	1747.74146	1513.29724	176.98938	1763.46313	1086.9447	345.76901	1622.271	1199.4585	341.57568	1892.43262	1010.05713	142.80536	1785.7998	674.03815	-154.64946	2005.13123	1335.3606	-115.30963	1945.44971	724.85162	209.74075	1890.94958	997.94489	-102.88266	1888.22693	1741.90125	-49.18037	2026.57446	525.31445	179.29939	1900.427	1232.37537	-325.57559	1587.00659	378.67975	-108.74922	1724.94775	1125.77222	308.74539	1898.13062	1293.26392	35.04196	2023.11902	332.74759	192.42294	1873.58972	1728.87561	93.75479	2034.49646	136.44322	161.96617	1735.31873	1646.68274	70.80544	2192.6958	100.3578	159.88039	2007.64709	77.44781	105.05603	1710.50586	1528.42419	-7.09694	1411.36353	212.80589	-8.30397	1967.79089	1275.35779	-216.27191	1846.98047	1462.31775	13.81351	1957.84277	1366.73169	-114.75312	1761.62952	1661.37646	-68.52266	1643.5127	1358.66418	45.10716	2009.97485	1378.09326	-59.53472	1652.36694	1254.52332	-0.98063	1682.69849	1040.79871	-37.45617	1676.61804	1038.45789	78.86623	2846.12915	1034.56445	-3356.69775	NaN	NaN	NaN	NaN	NaN	NaN	NaN	NaN	NaN	NaN	NaN	NaN	NaN	NaN	NaN	1775.0238	1806.88574	25.70355	NaN	NaN	NaN	NaN	NaN	NaN	NaN	NaN	NaN	NaN	NaN	NaN	NaN	NaN	NaN
100	0.99	1837.43567	1501.43689	-149.58386	1583.76038	1301.53564	327.58771	1471.08691	218.43581	-66.19466	1541.84155	80.54922	-89.7584	1880.8562	1356.90137	-279.64871	1653.31409	1418.71191	263.76041	1729.51563	1088.80396	344.84738	1778.38269	485.73495	-119.81252	1783.59534	1511.6012	177.22145	1797.60376	1087.00208	349.38635	1656.09167	1199.84314	342.60825	1932.48022	1009.22125	138.4286	1819.68616	674.13098	-156.8605	2041.95581	1333.85754	-115.94891	1980.80286	721.71771	210.93146	1929.11023	999.49213	-105.2114	1923.58606	1739.776	-46.96688	2061.70093	519.966	177.72652	1937.89331	1238.63916	-330.72058	1617.04517	383.52765	-107.88531	1760.1604	1126.46167	312.05804	1933.06409	1294.21033	34.76568	2073.94043	328.25763	189.62802	1908.86377	1726.21021	95.91893	2104.07764	134.65456	160.07175	1770.42871	1644.97729	73.29662	2265.57886	109.57902	155.46178	2081.15234	74.65474	102.58622	1744.96606	1526.69153	-5.51498	1439.82239	221.51633	-8.39421	2004.98169	1277.56055	-219.39816	1881.73083	1462.05518	14.85448	1994.28943	1364.20105	-113.21748	1796.68396	1659.97168	-66.93747	1679.74097	1357.06677	45.99123	2046.13892	1373.02063	-57.3793	1688.83459	1252.28174	-0.80533	1721.03528	1042.00598	-36.73641	1715.91785	1038.50818	79.92453	2846.06348	1034.60266	-3356.70044	NaN	NaN	NaN	NaN	NaN	NaN	NaN	NaN	NaN	NaN	NaN	NaN	NaN	NaN	NaN	1810.84119	1805.09375	28.18005	NaN	NaN	NaN	NaN	NaN	NaN	NaN	NaN	NaN	NaN	NaN	NaN	NaN	NaN	NaN
101	1	1869.22351	1499.94043	-147.5211	1618.98535	1299.16492	328.16901	1500.34937	227.19518	-67.03421	1567.77637	89.6834	-97.76971	1914.50684	1359.72241	-280.70178	1689.43237	1417.06921	263.40991	1766.06531	1086.70007	347.11771	1815.0094	484.20145	-121.45424	1820.30103	1508.55554	178.13593	1834.14148	1085.45862	352.90076	1691.74988	1197.65625	344.29538	1972.19104	1007.58362	134.10066	1856.4436	674.55609	-158.60612	2078.70239	1330.23462	-117.36609	2016.18726	715.40796	212.31366	1966.67285	1000.3941	-107.57048	1958.97974	1737.14465	-45.06677	2098.40479	514.52246	175.76711	1973.68469	1243.30322	-335.79007	1650.41162	389.29755	-106.96688	1796.85303	1124.7428	315.0025	1970.48511	1294.96753	38.69678	2121.29761	325.53085	186.92012	1943.69946	1722.64307	97.70912	2163.97314	134.37617	157.38672	1805.25171	1641.74792	74.96423	2327.64722	115.65051	151.50793	2143.90161	74.11711	99.31122	1779.06396	1523.93823	-4.28332	1469.81433	229.06743	-8.19114	2041.52698	1277.88379	-223.00215	1916.62964	1460.4248	15.7731	2030.58179	1359.39563	-112.14063	1831.54211	1657.56873	-65.3604	1715.75415	1354.6925	47.17779	2082.62256	1365.69385	-56.18084	1725.12878	1249.23608	-0.19196	1759.27991	1041.77832	-35.00595	1754.69067	1037.69922	81.77826	2846.09155	1034.53723	-3356.87866	NaN	NaN	NaN	NaN	NaN	NaN	NaN	NaN	NaN	NaN	NaN	NaN	NaN	NaN	NaN	1846.1604	1801.97839	30.8104	NaN	NaN	NaN	NaN	NaN	NaN	NaN	NaN	NaN	NaN	NaN	NaN	NaN	NaN	NaN
102	1.01	1900.6698	1497.69629	-146.1456	1656.10803	1294.06836	330.04498	1532.64465	235.2921	-67.91021	1597.24927	97.73878	-103.29781	1946.40979	1360.94397	-282.22467	1726.69202	1412.78699	264.78503	1805.11829	1082.65955	349.64047	1855.54468	482.30838	-123.03777	1857.54761	1504.18335	179.73076	1873.13916	1082.18994	356.0491	1729.55701	1193.03784	346.74854	2011.56323	1005.06305	130.42284	1897.06616	674.41473	-159.53244	2115.20361	1324.3407	-119.63032	2051.40479	707.22583	213.89783	2003.57654	1000.19415	-109.38931	1992.89856	1733.57361	-43.17624	2137.09595	510.0372	173.53798	2007.54468	1246.10083	-340.56064	1687.03174	393.44431	-106.28451	1835.86304	1121.09399	317.97653	2004.89172	1293.16052	37.50016	2166.33301	323.72809	183.74562	1978.41113	1718.52502	99.4098	2214.02832	133.50154	153.29085	1839.67102	1637.46313	75.56668	2379.06055	117.38194	146.70731	2195.31982	73.4724	95.15504	1813.31104	1520.20862	-2.64171	1502.47437	235.93842	-8.77137	2076.8938	1276.18372	-227.0177	1951.62354	1457.56421	16.56157	2066.79639	1352.41309	-111.79695	1865.85315	1654.08386	-63.78743	1751.44885	1351.34277	48.97214	2119.29883	1355.65222	-56.12141	1761.30847	1245.36584	0.49674	1797.22351	1040.39099	-32.53137	1792.18555	1035.9281	84.34539	2846.15576	1034.39319	-3356.78101	NaN	NaN	NaN	NaN	NaN	NaN	NaN	NaN	NaN	NaN	NaN	NaN	NaN	NaN	NaN	1880.62915	1797.86597	33.49765	NaN	NaN	NaN	NaN	NaN	NaN	NaN	NaN	NaN	NaN	NaN	NaN	NaN	NaN	NaN
